<?xml version="1.0" encoding="utf-8"?><svg width="91" height="86" viewBox="0 0 91 86" xmlns="http://www.w3.org/2000/svg" xmlns:xlink="http://www.w3.org/1999/xlink"><view id="arr" viewBox="0 52 39 34"/><svg width="39" height="34" fill="none" viewBox="-10 -10 39 34" y="52" xmlns="http://www.w3.org/2000/svg"><path fill-rule="evenodd" clip-rule="evenodd" d="M12.802.21l6.004 6.293a.733.733 0 0 1 0 .994l-6.004 6.292a.65.65 0 0 1-.957 0 .745.745 0 0 1 0-1.003l4.854-5.079H.68C.307 7.707 0 7.386 0 6.995a.69.69 0 0 1 .68-.703H16.7l-4.855-5.088a.733.733 0 0 1 0-.993.65.65 0 0 1 .957 0z" fill="#fff"/></svg><view id="play" viewBox="0 0 38.45 52"/><svg width="38.45" height="52" fill="none" viewBox="-34.69 -34.69 133.38 180.38" xmlns="http://www.w3.org/2000/svg"><path d="M63.84 55.222L0 110.444V0l63.84 55.222z" fill="#232323"/></svg><view id="quot" viewBox="38.45 0 52 50.4"/><svg width="52" height="50.4" fill="none" viewBox="-25 -25 130 126" x="38.45" xmlns="http://www.w3.org/2000/svg"><path d="M79.162.243v10.768c-6.887 3.589-10.33 14.454-10.33 32.594v3.346h10.33v28.665h-28.81V51.462c0-29.393 9.603-46.466 28.81-51.219zm-50.346 0v10.768c-6.79 3.589-10.185 14.454-10.185 32.594v3.346h10.185v28.665H.151V51.462C.151 22.069 9.706 4.996 28.816.243z" fill="#292929"/></svg></svg>