<?xml version="1.0" encoding="utf-8"?><svg viewBox="0 0 80 111" xmlns="http://www.w3.org/2000/svg" xmlns:xlink="http://www.w3.org/1999/xlink"><style>:root>svg{display:none}:root>svg:target{display:block}</style><svg width="19" height="14" fill="none" viewBox="0 0 19 14" id="arr" xmlns="http://www.w3.org/2000/svg"><path fill-rule="evenodd" clip-rule="evenodd" d="M12.802.21l6.004 6.293a.733.733 0 0 1 0 .994l-6.004 6.292a.65.65 0 0 1-.957 0 .745.745 0 0 1 0-1.003l4.854-5.079H.68C.307 7.707 0 7.386 0 6.995a.69.69 0 0 1 .68-.703H16.7l-4.855-5.088a.733.733 0 0 1 0-.993.65.65 0 0 1 .957 0z" fill="#fff"/></svg><svg width="64" height="111" fill="none" viewBox="0 0 64 111" id="play" xmlns="http://www.w3.org/2000/svg"><path d="M63.84 55.222L0 110.444V0l63.84 55.222z" fill="#232323"/></svg><svg width="80" height="76" fill="none" viewBox="0 0 80 76" id="quot" xmlns="http://www.w3.org/2000/svg"><path d="M79.162.243v10.768c-6.887 3.589-10.33 14.454-10.33 32.594v3.346h10.33v28.665h-28.81V51.462c0-29.393 9.603-46.466 28.81-51.219zm-50.346 0v10.768c-6.79 3.589-10.185 14.454-10.185 32.594v3.346h10.185v28.665H.151V51.462C.151 22.069 9.706 4.996 28.816.243z" fill="#292929"/></svg></svg>